<?xml version="1.0" encoding="UTF-8"?>
<svg id="Layer_1" data-name="Layer 1" xmlns="http://www.w3.org/2000/svg" viewBox="0 0 279.68 46.61">
  <defs>
    <style>
      .cls-1 {
        fill: #1c2939;
      }
    </style>
  </defs>
  <path class="cls-1" d="m34.92,20.06l-22.1-2.76c-2-.25-3.51-1.96-3.51-3.97,0-2.21,1.8-4,4-4h30.47V0H13.32C5.97,0,0,5.98,0,13.33c0,6.71,5.02,12.39,11.67,13.22l22.1,2.76c2,.25,3.51,1.96,3.51,3.97,0,2.21-1.8,4-4,4H2.8v9.32h30.47c7.34,0,13.32-5.98,13.32-13.33,0-6.71-5.02-12.39-11.67-13.22Z"/>
  <path class="cls-1" d="m93.17,30.3c0,3.86-3.13,6.99-6.99,6.99h-11.65c-3.85,0-6.99-3.14-6.99-6.99V0h-9.32v30.3c0,9,7.31,16.31,16.31,16.31h11.65c8.99,0,16.31-7.32,16.31-16.31V0h-9.32v30.3Z"/>
  <polygon class="cls-1" points="114.14 9.32 132.77 9.32 132.77 46.61 142.09 46.61 142.09 9.32 160.72 9.32 160.72 0 114.14 0 114.14 9.32"/>
  <path class="cls-1" d="m258.19,0h-10.6l-21.49,46.61h9.86l5.37-11.65h23.12l5.37,11.65h9.86L258.19,0Zm-12.99,26.57l7.69-16.69,7.69,16.69h-15.38Z"/>
  <path class="cls-1" d="m218.96,15.8C218.96,7.09,211.87,0,203.17,0h-30.79v46.61h9.32v-12.2l13.39-1.68,10.32,13.87h11.22l-11.09-15.19c7.68-1.17,13.42-7.81,13.42-15.62Zm-14.99,6.43l-22.28,2.79v-15.69h21.48c3.57,0,6.48,2.91,6.48,6.48,0,3.26-2.44,6.02-5.67,6.43Z"/>
</svg>